<?xml version="1.0" encoding="UTF-8" standalone="no"?><svg xmlns="http://www.w3.org/2000/svg" xmlns:xlink="http://www.w3.org/1999/xlink" contentScriptType="application/ecmascript" contentStyleType="text/css" height="332px" preserveAspectRatio="none" style="width:376px;height:332px;background:#00000000;" version="1.1" viewBox="0 0 376 332" width="376px" zoomAndPan="magnify"><defs><filter height="300%" id="f7q7pb832wwsy" width="300%" x="-1" y="-1"><feGaussianBlur result="blurOut" stdDeviation="2.0"/><feColorMatrix in="blurOut" result="blurOut2" type="matrix" values="0 0 0 0 0 0 0 0 0 0 0 0 0 0 0 0 0 0 .4 0"/><feOffset dx="4.0" dy="4.0" in="blurOut2" result="blurOut3"/><feBlend in="SourceGraphic" in2="blurOut3" mode="normal"/></filter></defs><g><!--MD5=[4c849c920ee55437f2b0f9fa78b68805]
class DevelopmentExpressKernel--><rect codeLine="4" fill="#FEFECE" filter="url(#f7q7pb832wwsy)" height="138.6855" id="DevelopmentExpressKernel" style="stroke:#A80036;stroke-width:1.5;" width="353" x="9" y="180"/><ellipse cx="101.75" cy="196" fill="#ADD1B2" rx="11" ry="11" style="stroke:#A80036;stroke-width:1.0;"/><path d="M104.2231,202.1431 Q103.6421,202.4419 103.0029,202.5913 Q102.3638,202.7407 101.6582,202.7407 Q99.1514,202.7407 97.8315,201.0889 Q96.5117,199.437 96.5117,196.3159 Q96.5117,193.1865 97.8315,191.5347 Q99.1514,189.8828 101.6582,189.8828 Q102.3638,189.8828 103.0112,190.0322 Q103.6587,190.1816 104.2231,190.4805 L104.2231,193.2031 Q103.5923,192.6221 102.9988,192.3523 Q102.4053,192.0825 101.7744,192.0825 Q100.4297,192.0825 99.7449,193.1492 Q99.0601,194.2158 99.0601,196.3159 Q99.0601,198.4077 99.7449,199.4744 Q100.4297,200.541 101.7744,200.541 Q102.4053,200.541 102.9988,200.2712 Q103.5923,200.0015 104.2231,199.4204 Z " fill="#000000"/><text fill="#000000" font-family="sans-serif" font-size="12" lengthAdjust="spacing" textLength="159" x="122.25" y="200.5352">DevelopmentExpressKernel</text><line style="stroke:#A80036;stroke-width:1.5;" x1="10" x2="361" y1="212" y2="212"/><polygon fill="none" points="20,218,24,222,20,226,16,222" style="stroke:#B38D22;stroke-width:1.0;"/><text fill="#000000" font-family="sans-serif" font-size="11" lengthAdjust="spacing" textLength="95" x="29" y="226.6348">express : Express</text><polygon fill="none" points="20,230.9551,24,234.9551,20,238.9551,16,234.9551" style="stroke:#B38D22;stroke-width:1.0;"/><text fill="#000000" font-family="sans-serif" font-size="11" lengthAdjust="spacing" textLength="135" x="29" y="239.5898">global : typeof globalThis</text><line style="stroke:#A80036;stroke-width:1.5;" x1="10" x2="361" y1="245.9102" y2="245.9102"/><ellipse cx="20" cy="256.9102" fill="#84BE84" rx="3" ry="3" style="stroke:#038048;stroke-width:1.0;"/><text fill="#000000" font-family="sans-serif" font-size="11" lengthAdjust="spacing" textLength="327" x="29" y="260.5449">createDevCertificate(certPath: string, keyPath: string) : Object</text><ellipse cx="20" cy="269.8652" fill="#84BE84" rx="3" ry="3" style="stroke:#038048;stroke-width:1.0;"/><text fill="#000000" font-family="sans-serif" font-size="11" lengthAdjust="spacing" textLength="321" x="29" y="273.5">start(port: number) : Promise&lt;DevelopmentExpressKernel&gt;</text><ellipse cx="20" cy="282.8203" fill="#84BE84" rx="3" ry="3" style="stroke:#038048;stroke-width:1.0;"/><text fill="#000000" font-family="sans-serif" font-size="11" lengthAdjust="spacing" textLength="231" x="29" y="286.4551">startServer(port: number) : Promise&lt;void&gt;</text><polygon fill="#FFFF44" points="20,290.7754,24,294.7754,20,298.7754,16,294.7754" style="stroke:#B38D22;stroke-width:1.0;"/><text fill="#000000" font-family="sans-serif" font-size="11" lengthAdjust="spacing" textLength="132" x="29" y="299.4102">logUrls(url: string) : void</text><rect fill="#F24D5C" height="6" style="stroke:#C82930;stroke-width:1.0;" width="6" x="17" y="305.7305"/><text fill="#000000" font-family="sans-serif" font-size="11" lengthAdjust="spacing" textLength="144" x="29" y="312.3652">getDevCertificate() : Object</text><!--MD5=[af34fcaafe0a1a2d73c61c031532ed9f]
class ExpressKernel--><rect codeLine="13" fill="#FEFECE" filter="url(#f7q7pb832wwsy)" height="112.7754" id="ExpressKernel" style="stroke:#A80036;stroke-width:1.5;" width="277" x="47" y="7"/><ellipse cx="139.75" cy="23" fill="#ADD1B2" rx="11" ry="11" style="stroke:#A80036;stroke-width:1.0;"/><path d="M142.2231,29.1431 Q141.6421,29.4419 141.0029,29.5913 Q140.3638,29.7407 139.6582,29.7407 Q137.1514,29.7407 135.8315,28.0889 Q134.5117,26.437 134.5117,23.3159 Q134.5117,20.1865 135.8315,18.5347 Q137.1514,16.8828 139.6582,16.8828 Q140.3638,16.8828 141.0112,17.0322 Q141.6587,17.1816 142.2231,17.4805 L142.2231,20.2031 Q141.5923,19.6221 140.9988,19.3523 Q140.4053,19.0825 139.7744,19.0825 Q138.4297,19.0825 137.7449,20.1492 Q137.0601,21.2158 137.0601,23.3159 Q137.0601,25.4077 137.7449,26.4744 Q138.4297,27.541 139.7744,27.541 Q140.4053,27.541 140.9988,27.2712 Q141.5923,27.0015 142.2231,26.4204 Z " fill="#000000"/><text fill="#000000" font-family="sans-serif" font-size="12" lengthAdjust="spacing" textLength="83" x="160.25" y="27.5352">ExpressKernel</text><line style="stroke:#A80036;stroke-width:1.5;" x1="48" x2="323" y1="39" y2="39"/><polygon fill="none" points="58,45,62,49,58,53,54,49" style="stroke:#B38D22;stroke-width:1.0;"/><text fill="#000000" font-family="sans-serif" font-size="11" lengthAdjust="spacing" textLength="95" x="67" y="53.6348">express : Express</text><polygon fill="none" points="58,57.9551,62,61.9551,58,65.9551,54,61.9551" style="stroke:#B38D22;stroke-width:1.0;"/><text fill="#000000" font-family="sans-serif" font-size="11" lengthAdjust="spacing" textLength="135" x="67" y="66.5898">global : typeof globalThis</text><line style="stroke:#A80036;stroke-width:1.5;" x1="48" x2="323" y1="72.9102" y2="72.9102"/><ellipse cx="58" cy="83.9102" fill="#84BE84" rx="3" ry="3" style="stroke:#038048;stroke-width:1.0;"/><text fill="#000000" font-family="sans-serif" font-size="11" lengthAdjust="spacing" textLength="251" x="67" y="87.5449">start(port: number) : Promise&lt;ExpressKernel&gt;</text><polygon fill="#FFFF44" points="58,91.8652,62,95.8652,58,99.8652,54,95.8652" style="stroke:#B38D22;stroke-width:1.0;"/><text fill="#000000" font-family="sans-serif" font-size="11" lengthAdjust="spacing" textLength="132" x="67" y="100.5">logUrls(url: string) : void</text><polygon fill="#FFFF44" points="58,104.8203,62,108.8203,58,112.8203,54,108.8203" style="stroke:#B38D22;stroke-width:1.0;"/><text fill="#000000" font-family="sans-serif" font-size="11" lengthAdjust="spacing" textLength="231" x="67" y="113.4551">startServer(port: number) : Promise&lt;void&gt;</text><!--MD5=[0dc04a3bda3695072cd7a22d07cbf526]
reverse link ExpressKernel to DevelopmentExpressKernel--><path codeLine="20" d="M185.5,140.32 C185.5,153.46 185.5,167.05 185.5,179.98 " fill="none" id="ExpressKernel-backto-DevelopmentExpressKernel" style="stroke:#A80036;stroke-width:1.0;"/><polygon fill="none" points="178.5,140.21,185.5,120.21,192.5,140.21,178.5,140.21" style="stroke:#A80036;stroke-width:1.0;"/><!--MD5=[0d489237bfb21fa86985795566d3120c]
@startuml
skinparam BackgroundColor transparent
hide empty methods
hide empty fields
class "DevelopmentExpressKernel" {
    #express : Express
    #global : typeof globalThis
    +createDevCertificate(certPath: string, keyPath: string) : Object
    +start(port: number) : Promise<DevelopmentExpressKernel>
    +startServer(port: number) : Promise<void>
    #logUrls(url: string) : void
    -getDevCertificate() : Object
}
class "ExpressKernel" {
    #express : Express
    #global : typeof globalThis
    +start(port: number) : Promise<ExpressKernel>
    #logUrls(url: string) : void
    #startServer(port: number) : Promise<void>
}
"ExpressKernel" <|- - "DevelopmentExpressKernel"
@enduml

PlantUML version 1.2021.14(Fri Nov 12 17:46:50 CET 2021)
(GPL source distribution)
Java Runtime: Java(TM) SE Runtime Environment
JVM: Java HotSpot(TM) 64-Bit Server VM
Default Encoding: UTF-8
Language: de
Country: DE
--></g></svg>