<?xml version="1.0" encoding="UTF-8" standalone="no"?><svg xmlns="http://www.w3.org/2000/svg" xmlns:xlink="http://www.w3.org/1999/xlink" contentScriptType="application/ecmascript" contentStyleType="text/css" height="466px" preserveAspectRatio="none" style="width:710px;height:466px;background:#00000000;" version="1.1" viewBox="0 0 710 466" width="710px" zoomAndPan="magnify"><defs><filter height="300%" id="f4ibfts0xpsm0" width="300%" x="-1" y="-1"><feGaussianBlur result="blurOut" stdDeviation="2.0"/><feColorMatrix in="blurOut" result="blurOut2" type="matrix" values="0 0 0 0 0 0 0 0 0 0 0 0 0 0 0 0 0 0 .4 0"/><feOffset dx="4.0" dy="4.0" in="blurOut2" result="blurOut3"/><feBlend in="SourceGraphic" in2="blurOut3" mode="normal"/></filter></defs><g><!--MD5=[af34fcaafe0a1a2d73c61c031532ed9f]
class ExpressKernel--><rect codeLine="4" fill="#FEFECE" filter="url(#f4ibfts0xpsm0)" height="112.7754" id="ExpressKernel" style="stroke:#A80036;stroke-width:1.5;" width="277" x="227" y="141"/><ellipse cx="319.75" cy="157" fill="#ADD1B2" rx="11" ry="11" style="stroke:#A80036;stroke-width:1.0;"/><path d="M322.2231,163.1431 Q321.6421,163.4419 321.0029,163.5913 Q320.3638,163.7407 319.6582,163.7407 Q317.1514,163.7407 315.8315,162.0889 Q314.5117,160.437 314.5117,157.3159 Q314.5117,154.1865 315.8315,152.5347 Q317.1514,150.8828 319.6582,150.8828 Q320.3638,150.8828 321.0112,151.0322 Q321.6587,151.1816 322.2231,151.4805 L322.2231,154.2031 Q321.5923,153.6221 320.9988,153.3523 Q320.4053,153.0825 319.7744,153.0825 Q318.4297,153.0825 317.7449,154.1492 Q317.0601,155.2158 317.0601,157.3159 Q317.0601,159.4077 317.7449,160.4744 Q318.4297,161.541 319.7744,161.541 Q320.4053,161.541 320.9988,161.2712 Q321.5923,161.0015 322.2231,160.4204 Z " fill="#000000"/><text fill="#000000" font-family="sans-serif" font-size="12" lengthAdjust="spacing" textLength="83" x="340.25" y="161.5352">ExpressKernel</text><line style="stroke:#A80036;stroke-width:1.5;" x1="228" x2="503" y1="173" y2="173"/><polygon fill="none" points="238,179,242,183,238,187,234,183" style="stroke:#B38D22;stroke-width:1.0;"/><text fill="#000000" font-family="sans-serif" font-size="11" lengthAdjust="spacing" textLength="95" x="247" y="187.6348">express : Express</text><polygon fill="none" points="238,191.9551,242,195.9551,238,199.9551,234,195.9551" style="stroke:#B38D22;stroke-width:1.0;"/><text fill="#000000" font-family="sans-serif" font-size="11" lengthAdjust="spacing" textLength="135" x="247" y="200.5898">global : typeof globalThis</text><line style="stroke:#A80036;stroke-width:1.5;" x1="228" x2="503" y1="206.9102" y2="206.9102"/><ellipse cx="238" cy="217.9102" fill="#84BE84" rx="3" ry="3" style="stroke:#038048;stroke-width:1.0;"/><text fill="#000000" font-family="sans-serif" font-size="11" lengthAdjust="spacing" textLength="251" x="247" y="221.5449">start(port: number) : Promise&lt;ExpressKernel&gt;</text><polygon fill="#FFFF44" points="238,225.8652,242,229.8652,238,233.8652,234,229.8652" style="stroke:#B38D22;stroke-width:1.0;"/><text fill="#000000" font-family="sans-serif" font-size="11" lengthAdjust="spacing" textLength="132" x="247" y="234.5">logUrls(url: string) : void</text><polygon fill="#FFFF44" points="238,238.8203,242,242.8203,238,246.8203,234,242.8203" style="stroke:#B38D22;stroke-width:1.0;"/><text fill="#000000" font-family="sans-serif" font-size="11" lengthAdjust="spacing" textLength="231" x="247" y="247.4551">startServer(port: number) : Promise&lt;void&gt;</text><!--MD5=[fe9a633d62c61da2904be98abc791ca5]
class NodeJsKernel--><rect codeLine="11" fill="#FEFECE" filter="url(#f4ibfts0xpsm0)" height="73.9102" id="NodeJsKernel" style="stroke:#A80036;stroke-width:1.5;" width="187" x="272" y="7"/><ellipse cx="322.25" cy="23" fill="#A9DCDF" rx="11" ry="11" style="stroke:#A80036;stroke-width:1.0;"/><path d="M322.1133,18.3481 L320.9595,23.4199 L323.2754,23.4199 Z M320.6191,16.1069 L323.6157,16.1069 L326.9609,28.5 L324.5122,28.5 L323.7485,25.437 L320.4697,25.437 L319.7227,28.5 L317.2739,28.5 Z " fill="#000000"/><text fill="#000000" font-family="sans-serif" font-size="12" font-style="italic" lengthAdjust="spacing" textLength="78" x="342.75" y="27.5352">NodeJsKernel</text><line style="stroke:#A80036;stroke-width:1.5;" x1="273" x2="458" y1="39" y2="39"/><polygon fill="none" points="283,45,287,49,283,53,279,49" style="stroke:#B38D22;stroke-width:1.0;"/><text fill="#000000" font-family="sans-serif" font-size="11" lengthAdjust="spacing" textLength="135" x="292" y="53.6348">global : typeof globalThis</text><line style="stroke:#A80036;stroke-width:1.5;" x1="273" x2="458" y1="59.9551" y2="59.9551"/><ellipse cx="283" cy="70.9551" fill="#84BE84" rx="3" ry="3" style="stroke:#038048;stroke-width:1.0;"/><text fill="#000000" font-family="sans-serif" font-size="11" font-style="italic" lengthAdjust="spacing" textLength="161" x="292" y="74.5898">start() : Promise&lt;BaseKernel&gt;</text><!--MD5=[4c849c920ee55437f2b0f9fa78b68805]
class DevelopmentExpressKernel--><rect codeLine="16" fill="#FEFECE" filter="url(#f4ibfts0xpsm0)" height="138.6855" id="DevelopmentExpressKernel" style="stroke:#A80036;stroke-width:1.5;" width="353" x="9" y="314"/><ellipse cx="101.75" cy="330" fill="#ADD1B2" rx="11" ry="11" style="stroke:#A80036;stroke-width:1.0;"/><path d="M104.2231,336.1431 Q103.6421,336.4419 103.0029,336.5913 Q102.3638,336.7407 101.6582,336.7407 Q99.1514,336.7407 97.8315,335.0889 Q96.5117,333.437 96.5117,330.3159 Q96.5117,327.1865 97.8315,325.5347 Q99.1514,323.8828 101.6582,323.8828 Q102.3638,323.8828 103.0112,324.0322 Q103.6587,324.1816 104.2231,324.4805 L104.2231,327.2031 Q103.5923,326.6221 102.9988,326.3523 Q102.4053,326.0825 101.7744,326.0825 Q100.4297,326.0825 99.7449,327.1492 Q99.0601,328.2158 99.0601,330.3159 Q99.0601,332.4077 99.7449,333.4744 Q100.4297,334.541 101.7744,334.541 Q102.4053,334.541 102.9988,334.2712 Q103.5923,334.0015 104.2231,333.4204 Z " fill="#000000"/><text fill="#000000" font-family="sans-serif" font-size="12" lengthAdjust="spacing" textLength="159" x="122.25" y="334.5352">DevelopmentExpressKernel</text><line style="stroke:#A80036;stroke-width:1.5;" x1="10" x2="361" y1="346" y2="346"/><polygon fill="none" points="20,352,24,356,20,360,16,356" style="stroke:#B38D22;stroke-width:1.0;"/><text fill="#000000" font-family="sans-serif" font-size="11" lengthAdjust="spacing" textLength="95" x="29" y="360.6348">express : Express</text><polygon fill="none" points="20,364.9551,24,368.9551,20,372.9551,16,368.9551" style="stroke:#B38D22;stroke-width:1.0;"/><text fill="#000000" font-family="sans-serif" font-size="11" lengthAdjust="spacing" textLength="135" x="29" y="373.5898">global : typeof globalThis</text><line style="stroke:#A80036;stroke-width:1.5;" x1="10" x2="361" y1="379.9102" y2="379.9102"/><ellipse cx="20" cy="390.9102" fill="#84BE84" rx="3" ry="3" style="stroke:#038048;stroke-width:1.0;"/><text fill="#000000" font-family="sans-serif" font-size="11" lengthAdjust="spacing" textLength="327" x="29" y="394.5449">createDevCertificate(certPath: string, keyPath: string) : Object</text><ellipse cx="20" cy="403.8652" fill="#84BE84" rx="3" ry="3" style="stroke:#038048;stroke-width:1.0;"/><text fill="#000000" font-family="sans-serif" font-size="11" lengthAdjust="spacing" textLength="321" x="29" y="407.5">start(port: number) : Promise&lt;DevelopmentExpressKernel&gt;</text><ellipse cx="20" cy="416.8203" fill="#84BE84" rx="3" ry="3" style="stroke:#038048;stroke-width:1.0;"/><text fill="#000000" font-family="sans-serif" font-size="11" lengthAdjust="spacing" textLength="231" x="29" y="420.4551">startServer(port: number) : Promise&lt;void&gt;</text><polygon fill="#FFFF44" points="20,424.7754,24,428.7754,20,432.7754,16,428.7754" style="stroke:#B38D22;stroke-width:1.0;"/><text fill="#000000" font-family="sans-serif" font-size="11" lengthAdjust="spacing" textLength="132" x="29" y="433.4102">logUrls(url: string) : void</text><rect fill="#F24D5C" height="6" style="stroke:#C82930;stroke-width:1.0;" width="6" x="17" y="439.7305"/><text fill="#000000" font-family="sans-serif" font-size="11" lengthAdjust="spacing" textLength="144" x="29" y="446.3652">getDevCertificate() : Object</text><!--MD5=[11f85cada1c678112540b26d0bfe9d7c]
class LocalTunnelKernel--><rect codeLine="26" fill="#FEFECE" filter="url(#f4ibfts0xpsm0)" height="112.7754" id="LocalTunnelKernel" style="stroke:#A80036;stroke-width:1.5;" width="299" x="397" y="327"/><ellipse cx="489.75" cy="343" fill="#ADD1B2" rx="11" ry="11" style="stroke:#A80036;stroke-width:1.0;"/><path d="M492.2231,349.1431 Q491.6421,349.4419 491.0029,349.5913 Q490.3638,349.7407 489.6582,349.7407 Q487.1514,349.7407 485.8315,348.0889 Q484.5117,346.437 484.5117,343.3159 Q484.5117,340.1865 485.8315,338.5347 Q487.1514,336.8828 489.6582,336.8828 Q490.3638,336.8828 491.0112,337.0322 Q491.6587,337.1816 492.2231,337.4805 L492.2231,340.2031 Q491.5923,339.6221 490.9988,339.3523 Q490.4053,339.0825 489.7744,339.0825 Q488.4297,339.0825 487.7449,340.1492 Q487.0601,341.2158 487.0601,343.3159 Q487.0601,345.4077 487.7449,346.4744 Q488.4297,347.541 489.7744,347.541 Q490.4053,347.541 490.9988,347.2712 Q491.5923,347.0015 492.2231,346.4204 Z " fill="#000000"/><text fill="#000000" font-family="sans-serif" font-size="12" lengthAdjust="spacing" textLength="105" x="510.25" y="347.5352">LocalTunnelKernel</text><line style="stroke:#A80036;stroke-width:1.5;" x1="398" x2="695" y1="359" y2="359"/><polygon fill="none" points="408,365,412,369,408,373,404,369" style="stroke:#B38D22;stroke-width:1.0;"/><text fill="#000000" font-family="sans-serif" font-size="11" lengthAdjust="spacing" textLength="95" x="417" y="373.6348">express : Express</text><polygon fill="none" points="408,377.9551,412,381.9551,408,385.9551,404,381.9551" style="stroke:#B38D22;stroke-width:1.0;"/><text fill="#000000" font-family="sans-serif" font-size="11" lengthAdjust="spacing" textLength="135" x="417" y="386.5898">global : typeof globalThis</text><line style="stroke:#A80036;stroke-width:1.5;" x1="398" x2="695" y1="392.9102" y2="392.9102"/><ellipse cx="408" cy="403.9102" fill="#84BE84" rx="3" ry="3" style="stroke:#038048;stroke-width:1.0;"/><text fill="#000000" font-family="sans-serif" font-size="11" lengthAdjust="spacing" textLength="273" x="417" y="407.5449">start(port: number) : Promise&lt;LocalTunnelKernel&gt;</text><polygon fill="#FFFF44" points="408,411.8652,412,415.8652,408,419.8652,404,415.8652" style="stroke:#B38D22;stroke-width:1.0;"/><text fill="#000000" font-family="sans-serif" font-size="11" lengthAdjust="spacing" textLength="132" x="417" y="420.5">logUrls(url: string) : void</text><polygon fill="#FFFF44" points="408,424.8203,412,428.8203,408,432.8203,404,428.8203" style="stroke:#B38D22;stroke-width:1.0;"/><text fill="#000000" font-family="sans-serif" font-size="11" lengthAdjust="spacing" textLength="231" x="417" y="433.4551">startServer(port: number) : Promise&lt;void&gt;</text><!--MD5=[095ab3e295bc66fdde038b95f2599812]
reverse link NodeJsKernel to ExpressKernel--><path codeLine="15" d="M365.5,101.36 C365.5,114.31 365.5,128.06 365.5,140.97 " fill="none" id="NodeJsKernel-backto-ExpressKernel" style="stroke:#A80036;stroke-width:1.0;"/><polygon fill="none" points="358.5,101.29,365.5,81.29,372.5,101.29,358.5,101.29" style="stroke:#A80036;stroke-width:1.0;"/><!--MD5=[0dc04a3bda3695072cd7a22d07cbf526]
reverse link ExpressKernel to DevelopmentExpressKernel--><path codeLine="25" d="M296.81,268.72 C282.29,283.56 266.99,299.2 252.53,313.98 " fill="none" id="ExpressKernel-backto-DevelopmentExpressKernel" style="stroke:#A80036;stroke-width:1.0;"/><polygon fill="none" points="292.02,263.61,311.01,254.21,302.02,273.4,292.02,263.61" style="stroke:#A80036;stroke-width:1.0;"/><!--MD5=[5bf2eca6084f9679fc64ad50134eb677]
reverse link ExpressKernel to LocalTunnelKernel--><path codeLine="33" d="M434.5,268.64 C453.49,287.95 473.83,308.62 491.89,326.98 " fill="none" id="ExpressKernel-backto-LocalTunnelKernel" style="stroke:#A80036;stroke-width:1.0;"/><polygon fill="none" points="429.33,273.37,420.3,254.21,439.31,263.55,429.33,273.37" style="stroke:#A80036;stroke-width:1.0;"/><!--MD5=[cb01aea0e50ec3ce20b45c1e4fce2755]
@startuml
skinparam BackgroundColor transparent
hide empty methods
hide empty fields
class "ExpressKernel" {
    #express : Express
    #global : typeof globalThis
    +start(port: number) : Promise<ExpressKernel>
    #logUrls(url: string) : void
    #startServer(port: number) : Promise<void>
}
abstract class "NodeJsKernel" {
    #global : typeof globalThis
    {abstract} +start() : Promise<BaseKernel>
}
"NodeJsKernel" <|- - "ExpressKernel"
class "DevelopmentExpressKernel" {
    #express : Express
    #global : typeof globalThis
    +createDevCertificate(certPath: string, keyPath: string) : Object
    +start(port: number) : Promise<DevelopmentExpressKernel>
    +startServer(port: number) : Promise<void>
    #logUrls(url: string) : void
    -getDevCertificate() : Object
}
"ExpressKernel" <|- - "DevelopmentExpressKernel"
class "LocalTunnelKernel" {
    #express : Express
    #global : typeof globalThis
    +start(port: number) : Promise<LocalTunnelKernel>
    #logUrls(url: string) : void
    #startServer(port: number) : Promise<void>
}
"ExpressKernel" <|- - "LocalTunnelKernel"
@enduml

PlantUML version 1.2021.14(Fri Nov 12 17:46:50 CET 2021)
(GPL source distribution)
Java Runtime: Java(TM) SE Runtime Environment
JVM: Java HotSpot(TM) 64-Bit Server VM
Default Encoding: UTF-8
Language: de
Country: DE
--></g></svg>