<?xml version="1.0" encoding="UTF-8" standalone="no"?><svg xmlns="http://www.w3.org/2000/svg" xmlns:xlink="http://www.w3.org/1999/xlink" contentScriptType="application/ecmascript" contentStyleType="text/css" height="306px" preserveAspectRatio="none" style="width:322px;height:306px;background:#00000000;" version="1.1" viewBox="0 0 322 306" width="322px" zoomAndPan="magnify"><defs><filter height="300%" id="f1ueg1syp1010h" width="300%" x="-1" y="-1"><feGaussianBlur result="blurOut" stdDeviation="2.0"/><feColorMatrix in="blurOut" result="blurOut2" type="matrix" values="0 0 0 0 0 0 0 0 0 0 0 0 0 0 0 0 0 0 .4 0"/><feOffset dx="4.0" dy="4.0" in="blurOut2" result="blurOut3"/><feBlend in="SourceGraphic" in2="blurOut3" mode="normal"/></filter></defs><g><!--MD5=[11f85cada1c678112540b26d0bfe9d7c]
class LocalTunnelKernel--><rect codeLine="4" fill="#FEFECE" filter="url(#f1ueg1syp1010h)" height="112.7754" id="LocalTunnelKernel" style="stroke:#A80036;stroke-width:1.5;" width="299" x="9" y="180"/><ellipse cx="101.75" cy="196" fill="#ADD1B2" rx="11" ry="11" style="stroke:#A80036;stroke-width:1.0;"/><path d="M104.2231,202.1431 Q103.6421,202.4419 103.0029,202.5913 Q102.3638,202.7407 101.6582,202.7407 Q99.1514,202.7407 97.8315,201.0889 Q96.5117,199.437 96.5117,196.3159 Q96.5117,193.1865 97.8315,191.5347 Q99.1514,189.8828 101.6582,189.8828 Q102.3638,189.8828 103.0112,190.0322 Q103.6587,190.1816 104.2231,190.4805 L104.2231,193.2031 Q103.5923,192.6221 102.9988,192.3523 Q102.4053,192.0825 101.7744,192.0825 Q100.4297,192.0825 99.7449,193.1492 Q99.0601,194.2158 99.0601,196.3159 Q99.0601,198.4077 99.7449,199.4744 Q100.4297,200.541 101.7744,200.541 Q102.4053,200.541 102.9988,200.2712 Q103.5923,200.0015 104.2231,199.4204 Z " fill="#000000"/><text fill="#000000" font-family="sans-serif" font-size="12" lengthAdjust="spacing" textLength="105" x="122.25" y="200.5352">LocalTunnelKernel</text><line style="stroke:#A80036;stroke-width:1.5;" x1="10" x2="307" y1="212" y2="212"/><polygon fill="none" points="20,218,24,222,20,226,16,222" style="stroke:#B38D22;stroke-width:1.0;"/><text fill="#000000" font-family="sans-serif" font-size="11" lengthAdjust="spacing" textLength="95" x="29" y="226.6348">express : Express</text><polygon fill="none" points="20,230.9551,24,234.9551,20,238.9551,16,234.9551" style="stroke:#B38D22;stroke-width:1.0;"/><text fill="#000000" font-family="sans-serif" font-size="11" lengthAdjust="spacing" textLength="135" x="29" y="239.5898">global : typeof globalThis</text><line style="stroke:#A80036;stroke-width:1.5;" x1="10" x2="307" y1="245.9102" y2="245.9102"/><ellipse cx="20" cy="256.9102" fill="#84BE84" rx="3" ry="3" style="stroke:#038048;stroke-width:1.0;"/><text fill="#000000" font-family="sans-serif" font-size="11" lengthAdjust="spacing" textLength="273" x="29" y="260.5449">start(port: number) : Promise&lt;LocalTunnelKernel&gt;</text><polygon fill="#FFFF44" points="20,264.8652,24,268.8652,20,272.8652,16,268.8652" style="stroke:#B38D22;stroke-width:1.0;"/><text fill="#000000" font-family="sans-serif" font-size="11" lengthAdjust="spacing" textLength="132" x="29" y="273.5">logUrls(url: string) : void</text><polygon fill="#FFFF44" points="20,277.8203,24,281.8203,20,285.8203,16,281.8203" style="stroke:#B38D22;stroke-width:1.0;"/><text fill="#000000" font-family="sans-serif" font-size="11" lengthAdjust="spacing" textLength="231" x="29" y="286.4551">startServer(port: number) : Promise&lt;void&gt;</text><!--MD5=[af34fcaafe0a1a2d73c61c031532ed9f]
class ExpressKernel--><rect codeLine="11" fill="#FEFECE" filter="url(#f1ueg1syp1010h)" height="112.7754" id="ExpressKernel" style="stroke:#A80036;stroke-width:1.5;" width="277" x="20" y="7"/><ellipse cx="112.75" cy="23" fill="#ADD1B2" rx="11" ry="11" style="stroke:#A80036;stroke-width:1.0;"/><path d="M115.2231,29.1431 Q114.6421,29.4419 114.0029,29.5913 Q113.3638,29.7407 112.6582,29.7407 Q110.1514,29.7407 108.8315,28.0889 Q107.5117,26.437 107.5117,23.3159 Q107.5117,20.1865 108.8315,18.5347 Q110.1514,16.8828 112.6582,16.8828 Q113.3638,16.8828 114.0112,17.0322 Q114.6587,17.1816 115.2231,17.4805 L115.2231,20.2031 Q114.5923,19.6221 113.9988,19.3523 Q113.4053,19.0825 112.7744,19.0825 Q111.4297,19.0825 110.7449,20.1492 Q110.0601,21.2158 110.0601,23.3159 Q110.0601,25.4077 110.7449,26.4744 Q111.4297,27.541 112.7744,27.541 Q113.4053,27.541 113.9988,27.2712 Q114.5923,27.0015 115.2231,26.4204 Z " fill="#000000"/><text fill="#000000" font-family="sans-serif" font-size="12" lengthAdjust="spacing" textLength="83" x="133.25" y="27.5352">ExpressKernel</text><line style="stroke:#A80036;stroke-width:1.5;" x1="21" x2="296" y1="39" y2="39"/><polygon fill="none" points="31,45,35,49,31,53,27,49" style="stroke:#B38D22;stroke-width:1.0;"/><text fill="#000000" font-family="sans-serif" font-size="11" lengthAdjust="spacing" textLength="95" x="40" y="53.6348">express : Express</text><polygon fill="none" points="31,57.9551,35,61.9551,31,65.9551,27,61.9551" style="stroke:#B38D22;stroke-width:1.0;"/><text fill="#000000" font-family="sans-serif" font-size="11" lengthAdjust="spacing" textLength="135" x="40" y="66.5898">global : typeof globalThis</text><line style="stroke:#A80036;stroke-width:1.5;" x1="21" x2="296" y1="72.9102" y2="72.9102"/><ellipse cx="31" cy="83.9102" fill="#84BE84" rx="3" ry="3" style="stroke:#038048;stroke-width:1.0;"/><text fill="#000000" font-family="sans-serif" font-size="11" lengthAdjust="spacing" textLength="251" x="40" y="87.5449">start(port: number) : Promise&lt;ExpressKernel&gt;</text><polygon fill="#FFFF44" points="31,91.8652,35,95.8652,31,99.8652,27,95.8652" style="stroke:#B38D22;stroke-width:1.0;"/><text fill="#000000" font-family="sans-serif" font-size="11" lengthAdjust="spacing" textLength="132" x="40" y="100.5">logUrls(url: string) : void</text><polygon fill="#FFFF44" points="31,104.8203,35,108.8203,31,112.8203,27,108.8203" style="stroke:#B38D22;stroke-width:1.0;"/><text fill="#000000" font-family="sans-serif" font-size="11" lengthAdjust="spacing" textLength="231" x="40" y="113.4551">startServer(port: number) : Promise&lt;void&gt;</text><!--MD5=[5bf2eca6084f9679fc64ad50134eb677]
reverse link ExpressKernel to LocalTunnelKernel--><path codeLine="18" d="M158.5,140.46 C158.5,153.76 158.5,167.36 158.5,179.97 " fill="none" id="ExpressKernel-backto-LocalTunnelKernel" style="stroke:#A80036;stroke-width:1.0;"/><polygon fill="none" points="151.5,140.02,158.5,120.02,165.5,140.02,151.5,140.02" style="stroke:#A80036;stroke-width:1.0;"/><!--MD5=[5179f3886a1181c8f0309bcf97ceb3b4]
@startuml
skinparam BackgroundColor transparent
hide empty methods
hide empty fields
class "LocalTunnelKernel" {
    #express : Express
    #global : typeof globalThis
    +start(port: number) : Promise<LocalTunnelKernel>
    #logUrls(url: string) : void
    #startServer(port: number) : Promise<void>
}
class "ExpressKernel" {
    #express : Express
    #global : typeof globalThis
    +start(port: number) : Promise<ExpressKernel>
    #logUrls(url: string) : void
    #startServer(port: number) : Promise<void>
}
"ExpressKernel" <|- - "LocalTunnelKernel"
@enduml

PlantUML version 1.2021.14(Fri Nov 12 17:46:50 CET 2021)
(GPL source distribution)
Java Runtime: Java(TM) SE Runtime Environment
JVM: Java HotSpot(TM) 64-Bit Server VM
Default Encoding: UTF-8
Language: de
Country: DE
--></g></svg>