<?xml version="1.0" encoding="UTF-8" standalone="no"?><svg xmlns="http://www.w3.org/2000/svg" xmlns:xlink="http://www.w3.org/1999/xlink" contentScriptType="application/ecmascript" contentStyleType="text/css" height="401px" preserveAspectRatio="none" style="width:300px;height:401px;background:#00000000;" version="1.1" viewBox="0 0 300 401" width="300px" zoomAndPan="magnify"><defs><filter height="300%" id="f1fnou1v7l0qvb" width="300%" x="-1" y="-1"><feGaussianBlur result="blurOut" stdDeviation="2.0"/><feColorMatrix in="blurOut" result="blurOut2" type="matrix" values="0 0 0 0 0 0 0 0 0 0 0 0 0 0 0 0 0 0 .4 0"/><feOffset dx="4.0" dy="4.0" in="blurOut2" result="blurOut3"/><feBlend in="SourceGraphic" in2="blurOut3" mode="normal"/></filter></defs><g><!--MD5=[fe9a633d62c61da2904be98abc791ca5]
class NodeJsKernel--><rect codeLine="4" fill="#FEFECE" filter="url(#f1fnou1v7l0qvb)" height="73.9102" id="NodeJsKernel" style="stroke:#A80036;stroke-width:1.5;" width="187" x="54" y="141"/><ellipse cx="104.25" cy="157" fill="#A9DCDF" rx="11" ry="11" style="stroke:#A80036;stroke-width:1.0;"/><path d="M104.1133,152.3481 L102.9595,157.4199 L105.2754,157.4199 Z M102.6191,150.1069 L105.6157,150.1069 L108.9609,162.5 L106.5122,162.5 L105.7485,159.437 L102.4697,159.437 L101.7227,162.5 L99.2739,162.5 Z " fill="#000000"/><text fill="#000000" font-family="sans-serif" font-size="12" font-style="italic" lengthAdjust="spacing" textLength="78" x="124.75" y="161.5352">NodeJsKernel</text><line style="stroke:#A80036;stroke-width:1.5;" x1="55" x2="240" y1="173" y2="173"/><polygon fill="none" points="65,179,69,183,65,187,61,183" style="stroke:#B38D22;stroke-width:1.0;"/><text fill="#000000" font-family="sans-serif" font-size="11" lengthAdjust="spacing" textLength="135" x="74" y="187.6348">global : typeof globalThis</text><line style="stroke:#A80036;stroke-width:1.5;" x1="55" x2="240" y1="193.9551" y2="193.9551"/><ellipse cx="65" cy="204.9551" fill="#84BE84" rx="3" ry="3" style="stroke:#038048;stroke-width:1.0;"/><text fill="#000000" font-family="sans-serif" font-size="11" font-style="italic" lengthAdjust="spacing" textLength="161" x="74" y="208.5898">start() : Promise&lt;BaseKernel&gt;</text><!--MD5=[fa6597bb1df2e0c2eff85f2ee0e5bc89]
class BaseKernel--><rect codeLine="8" fill="#FEFECE" filter="url(#f1fnou1v7l0qvb)" height="73.9102" id="BaseKernel" style="stroke:#A80036;stroke-width:1.5;" width="187" x="54" y="7"/><ellipse cx="111.25" cy="23" fill="#A9DCDF" rx="11" ry="11" style="stroke:#A80036;stroke-width:1.0;"/><path d="M111.1133,18.3481 L109.9595,23.4199 L112.2754,23.4199 Z M109.6191,16.1069 L112.6157,16.1069 L115.9609,28.5 L113.5122,28.5 L112.7485,25.437 L109.4697,25.437 L108.7227,28.5 L106.2739,28.5 Z " fill="#000000"/><text fill="#000000" font-family="sans-serif" font-size="12" font-style="italic" lengthAdjust="spacing" textLength="64" x="131.75" y="27.5352">BaseKernel</text><line style="stroke:#A80036;stroke-width:1.5;" x1="55" x2="240" y1="39" y2="39"/><polygon fill="none" points="65,45,69,49,65,53,61,49" style="stroke:#B38D22;stroke-width:1.0;"/><text fill="#000000" font-family="sans-serif" font-size="11" lengthAdjust="spacing" textLength="135" x="74" y="53.6348">global : typeof globalThis</text><line style="stroke:#A80036;stroke-width:1.5;" x1="55" x2="240" y1="59.9551" y2="59.9551"/><ellipse cx="65" cy="70.9551" fill="#84BE84" rx="3" ry="3" style="stroke:#038048;stroke-width:1.0;"/><text fill="#000000" font-family="sans-serif" font-size="11" font-style="italic" lengthAdjust="spacing" textLength="161" x="74" y="74.5898">start() : Promise&lt;BaseKernel&gt;</text><!--MD5=[af34fcaafe0a1a2d73c61c031532ed9f]
class ExpressKernel--><rect codeLine="13" fill="#FEFECE" filter="url(#f1fnou1v7l0qvb)" height="112.7754" id="ExpressKernel" style="stroke:#A80036;stroke-width:1.5;" width="277" x="9" y="275"/><ellipse cx="101.75" cy="291" fill="#ADD1B2" rx="11" ry="11" style="stroke:#A80036;stroke-width:1.0;"/><path d="M104.2231,297.1431 Q103.6421,297.4419 103.0029,297.5913 Q102.3638,297.7407 101.6582,297.7407 Q99.1514,297.7407 97.8315,296.0889 Q96.5117,294.437 96.5117,291.3159 Q96.5117,288.1865 97.8315,286.5347 Q99.1514,284.8828 101.6582,284.8828 Q102.3638,284.8828 103.0112,285.0322 Q103.6587,285.1816 104.2231,285.4805 L104.2231,288.2031 Q103.5923,287.6221 102.9988,287.3523 Q102.4053,287.0825 101.7744,287.0825 Q100.4297,287.0825 99.7449,288.1492 Q99.0601,289.2158 99.0601,291.3159 Q99.0601,293.4077 99.7449,294.4744 Q100.4297,295.541 101.7744,295.541 Q102.4053,295.541 102.9988,295.2712 Q103.5923,295.0015 104.2231,294.4204 Z " fill="#000000"/><text fill="#000000" font-family="sans-serif" font-size="12" lengthAdjust="spacing" textLength="83" x="122.25" y="295.5352">ExpressKernel</text><line style="stroke:#A80036;stroke-width:1.5;" x1="10" x2="285" y1="307" y2="307"/><polygon fill="none" points="20,313,24,317,20,321,16,317" style="stroke:#B38D22;stroke-width:1.0;"/><text fill="#000000" font-family="sans-serif" font-size="11" lengthAdjust="spacing" textLength="95" x="29" y="321.6348">express : Express</text><polygon fill="none" points="20,325.9551,24,329.9551,20,333.9551,16,329.9551" style="stroke:#B38D22;stroke-width:1.0;"/><text fill="#000000" font-family="sans-serif" font-size="11" lengthAdjust="spacing" textLength="135" x="29" y="334.5898">global : typeof globalThis</text><line style="stroke:#A80036;stroke-width:1.5;" x1="10" x2="285" y1="340.9102" y2="340.9102"/><ellipse cx="20" cy="351.9102" fill="#84BE84" rx="3" ry="3" style="stroke:#038048;stroke-width:1.0;"/><text fill="#000000" font-family="sans-serif" font-size="11" lengthAdjust="spacing" textLength="251" x="29" y="355.5449">start(port: number) : Promise&lt;ExpressKernel&gt;</text><polygon fill="#FFFF44" points="20,359.8652,24,363.8652,20,367.8652,16,363.8652" style="stroke:#B38D22;stroke-width:1.0;"/><text fill="#000000" font-family="sans-serif" font-size="11" lengthAdjust="spacing" textLength="132" x="29" y="368.5">logUrls(url: string) : void</text><polygon fill="#FFFF44" points="20,372.8203,24,376.8203,20,380.8203,16,376.8203" style="stroke:#B38D22;stroke-width:1.0;"/><text fill="#000000" font-family="sans-serif" font-size="11" lengthAdjust="spacing" textLength="231" x="29" y="381.4551">startServer(port: number) : Promise&lt;void&gt;</text><!--MD5=[c60e218e93e700c396f9b531e292230a]
reverse link BaseKernel to NodeJsKernel--><path codeLine="12" d="M147.5,101.38 C147.5,114.8 147.5,128.76 147.5,140.97 " fill="none" id="BaseKernel-backto-NodeJsKernel" style="stroke:#A80036;stroke-width:1.0;"/><polygon fill="none" points="140.5,101.07,147.5,81.07,154.5,101.07,140.5,101.07" style="stroke:#A80036;stroke-width:1.0;"/><!--MD5=[095ab3e295bc66fdde038b95f2599812]
reverse link NodeJsKernel to ExpressKernel--><path codeLine="20" d="M147.5,235.36 C147.5,248.31 147.5,262.06 147.5,274.97 " fill="none" id="NodeJsKernel-backto-ExpressKernel" style="stroke:#A80036;stroke-width:1.0;"/><polygon fill="none" points="140.5,235.29,147.5,215.29,154.5,235.29,140.5,235.29" style="stroke:#A80036;stroke-width:1.0;"/><!--MD5=[57c76f7eaae5dccbdcb0707ff23b02d2]
@startuml
skinparam BackgroundColor transparent
hide empty methods
hide empty fields
abstract class "NodeJsKernel" {
    #global : typeof globalThis
    {abstract} +start() : Promise<BaseKernel>
}
abstract class "BaseKernel" {
    #global : typeof globalThis
    {abstract} +start() : Promise<BaseKernel>
}
"BaseKernel" <|- - "NodeJsKernel"
class "ExpressKernel" {
    #express : Express
    #global : typeof globalThis
    +start(port: number) : Promise<ExpressKernel>
    #logUrls(url: string) : void
    #startServer(port: number) : Promise<void>
}
"NodeJsKernel" <|- - "ExpressKernel"
@enduml

PlantUML version 1.2021.14(Fri Nov 12 17:46:50 CET 2021)
(GPL source distribution)
Java Runtime: Java(TM) SE Runtime Environment
JVM: Java HotSpot(TM) 64-Bit Server VM
Default Encoding: UTF-8
Language: de
Country: DE
--></g></svg>